<?xml version="1.0" encoding="utf-8"?>
<!-- Generator: Adobe Illustrator 16.0.0, SVG Export Plug-In . SVG Version: 6.00 Build 0)  -->
<!DOCTYPE svg PUBLIC "-//W3C//DTD SVG 1.1//EN" "http://www.w3.org/Graphics/SVG/1.1/DTD/svg11.dtd">
<svg version="1.1" id="Слой_1" xmlns="http://www.w3.org/2000/svg" xmlns:xlink="http://www.w3.org/1999/xlink" x="0px" y="0px"
	 width="768px" height="1024px" viewBox="0 0 768 1024" enable-background="new 0 0 768 1024" xml:space="preserve">
<g>
	<path fill="#FFD700"       d="M621.89,187.188
		c3.636-0.891,7.205-1.973,10.719-3.179c7.538-2.587,15.344-6.057,20.416-11.736c4.757-5.325,4.581-13.669,5.628-20.076
		c1.42-8.675,2.756-17.36,4.075-26.047c0.329-2.163,3.269-10.423,1.086-12.296c-7.146-6.125-12.954-14.459-14.2-23.206
		c-0.311-2.174-3.168-2.2-2.853,0c1.235,8.667,4.938,16.108,11.247,22.76c0.747,0.788,1.539,1.541,2.345,2.283
		c-0.31,2.072-0.62,4.143-0.931,6.215c-1.268,8.419-2.564,16.833-3.908,25.242c-1.137,7.116-0.758,17.626-6.012,23.507
		c-5.313,5.948-14.779,9.146-22.658,11.563c-3.177,0.974-10.668,1.32-12.233,4.302c-5.284,10.056-17.069,22.791-24.405,31.959
		l-15.808,10.011c10.651-11.31,18.967-22.75,27.365-35.399c4.764-7.174,9.518-14.711,12.1-22.736
		c1.528-4.741-0.171-6.792-2.543-10.933c-2.553-4.456-5.174-8.957-7.739-13.501c16.025-15.042,26.677-33.91,25.443-55.275
		c-0.128-2.209-2.983-2.221-2.854,0c1.161,20.068-9.662,37.727-24.443,51.958c-5.671-10.234-10.917-20.714-14.337-31.51
		c-0.678-2.138-3.393-1.229-2.714,0.917c3.616,11.409,8.224,22.447,14.227,33.221c-8.896,7.974-19.354,14.787-30.27,20.224
		c-6.569,3.273-9.893,8.583-14.468,13.915c-6.292,7.333-12.584,14.667-18.876,22c1.722-11.153,3.443-22.307,5.164-33.46
		c0.061-0.395,0.12-0.79,0.182-1.184c0.07-0.074,0.295-0.375,0.829-0.785c3.113-2.385,5.922-5.066,8.568-7.841
		c7.909-8.294,14.11-18.52,15.724-29.319c0.875-5.841,0.313-11.58,0.01-17.439c-0.471-9.035-0.94-18.07-1.411-27.105
		c-0.177-3.366-0.35-6.732-0.526-10.097c-0.05-0.939-0.098-1.878-0.146-2.817c-0.008-0.159-0.022-0.27-0.038-0.358
		c0.034-0.045,0.071-0.098,0.113-0.163c3.901-6.004,7.802-12.009,11.701-18.015c1.257-1.935-1.059-3.67-2.313-1.738
		c-3.806,5.859-8.706,11.719-12.513,17.579c-2.094,3.219-0.612,8.202-0.428,11.729c0.749,14.407,2.45,29.029,2.136,43.452
		c-0.272,12.488-7.615,24.266-16.732,33.542c-2.653,2.698-8.323,5.497-8.89,9.182c-1.676,10.855-3.353,21.711-5.025,32.566
		c0,0-6.174-27.478-6.797-33.164c-0.289-2.634-0.467-5.268-0.756-7.902c-0.056-0.513-0.085-0.822-0.175-1.003
		c0.144-0.074,0.354-0.205,0.603-0.429c6.88-6.264,11.425-13.287,16.143-20.929c5.462-8.848,3.351-17.523,3.351-27.28
		c0-9.821,0-19.642,0-29.464c0-4.034-1.862-5.035-5.177-7.657c-9.383-7.434-15.836-17.355-15.647-28.722
		c0.037-2.223-2.398-2.22-2.438,0c-0.16,9.679,3.646,18.096,10.532,25.471c2.728,2.924,4.446,5.548,7.762,7.959
		c0.76,0.553,0.589,1.083,0.589,1.602c0,8.219,0,16.44,0,24.659c0,11.618,3.157,22.399-3.358,32.95
		c-4.446,7.201-9.642,13.743-16.151,19.601c-2.343,2.109,0.148,7.685,0.428,10.225c0.489,4.457,1.181,8.914,1.676,13.369
		c-4.124-13.088-8.151-26.177-12.275-39.266c0.681-0.751,1.391-1.519,2.042-2.291c3.591-4.276,6.523-8.941,8.629-13.913
		c3.143-7.421,2.755-15.351-6.433-18.435c-8.264-2.774-20.851-0.977-26.686-7.875c-3.51-4.15-1.949-12.042-2.301-16.922
		c-0.505-6.999-1.398-13.976-2.391-20.933c-0.796-5.567-1.679-11.128-2.721-16.665c-0.412-2.188-3.121-1.256-2.712,0.916
		c1.667,8.874,1.868,17.806,2.916,26.75c0.755,6.452,1.284,12.929,1.419,19.414c0.086,4.171,0.703,7.685,3.964,10.895
		c5.753,5.664,16.809,5.445,24.586,7.002c15.324,3.07,5.365,18.944-0.301,26.363c-3.109,4.071-4.388,4.5-2.957,9.04
		c2.083,6.61,4.168,13.22,6.249,19.83c3.796,12.045,7.593,24.089,11.386,36.135c0.178,1.608,2.299,57.642,2.299,57.642
		l-14.442,12.415c-30.401,31.224-26.455,98.409-26.455,98.409l-18.132,52.524c-16.943,9.503-34.399,50.221-42.732,70.731
		l-13.078-22.005c0,0-2.848-28.925-19.682-45.915c0,0,0.314-26.346,0.523-26.391c11.136-2.505,22.199-8.29,32.242-13.186
		c1.261-0.615,16.804-4.306,20.863-5.575c3.479-1.088,7.123-2.933,9.2-5.685c1.261-1.669,1.984-3.375,2.3-5.354
		c0.154-0.975-0.8-5.335-0.868-5.195c3.249-6.619,6.497-13.238,9.745-19.857c0.99-2.019-1.313-3.775-2.313-1.738
		c-3.092,6.298-7.276,12.596-10.368,18.895c-1.422,2.894,0.434,5.7-0.389,8.82c-1.169,4.427-6.831,6.5-11.287,7.616
		c-3.49,0.875-7.154,1.198-10.771,1.315c-3.541,0.117-4.775,0.969-8.104,2.688c-9.508,4.914-20.498,8.212-31.18,10.622
		c-0.514-1.914-1.574-5.356-3.497-9.744c-1.388-10.466-0.614-23.172,13.567-21.428c6.671,0.821,12.739,2.82,19.667,2.917
		c8.626,0.12,20.581-4.604,25.148-11.808c3.58-5.646,6.179-11.994,7.247-18.372c0.624-3.727,0.417-7.484-1.085-11.031
		c-1.407-3.326-4.885-4.44-6.735-7.013c-2.951-4.105-5.091-9.46-2.711-14.135c0.832-1.635,3.053-2.313,3.526-3.994
		c0.325-1.159,0.661-2.315,0.998-3.471c2.273-7.807,4.004-16.884,8.508-23.984c1.233-1.945-1.081-3.683-2.313-1.739
		c-4.36,6.875-7.21,15.427-9.459,22.963c-0.452,1.519-0.893,3.042-1.327,4.564c-0.383,1.335-1.614,1.516-2.505,2.758
		c-2.803,3.902-2.831,8.004-1.463,12.355c0.783,2.499,2.208,5.02,3.879,7.158c1.481,1.896,4.02,2.711,5.464,4.878
		c1.556,2.331,1.656,5.271,1.584,7.88c-0.186,6.802-3.389,16.117-8.811,21.252c-8.042,7.619-22.312,6.792-32.822,4.734
		c-6.066-1.188-11.588-3.069-17.349,0.39c-5.517,3.311-7.374,9.605-7.595,16.138c-8.504-21.15-80.968-50.69-56.141-113.672
		c0,0,9.145-18.22,10.815-26.964c0,0,4.983-11.787,5.583-12.401c9.778-10.032,20.883-19.221,32.423-27.679
		c18.037-13.222,43.021-30.209,68.028-27.24c2.487,0.295,3.563-1.929,1.048-2.228c-24.913-2.958-48.634,10.926-67.23,23.734
		c-10.205,7.027-20,14.794-28.981,23.117c2.506-5.002,5.009-10.005,7.514-15.007c1.86-3.719,3.721-7.438,5.584-11.156
		c0.118-0.03,0.25-0.067,0.412-0.114c1.903-0.557,3.673-1.415,5.35-2.362c9.832-5.544,16.214-16.221,17.261-26.166
		c1.282-12.182,4.701-30.298,18.009-36.878c2.213-1.095,0.227-2.978-1.991-1.881c-12.681,6.271-16.871,20.595-19.024,32.257
		c-0.624,3.374-1.083,6.799-1.253,10.215c-0.199,3.99-4.549,9.301-7.109,12.583c-2.264,2.902-5.267,5.419-8.637,7.32
		c-1.372,0.774-5.506,1.449-6.215,2.865c-1.77,3.537-3.542,7.074-5.312,10.61c-2.621,5.236-5.242,10.472-7.863,15.708l19.967-64.939
		l15.87-29.15c0,0,12.036-21.414,11.613-21.703c9.989-17.707,18.881-35.412,28.87-53.118c1.119-1.984-1.19-3.732-2.313-1.738
		C408.82,54.756,395.2,75.02,383.769,95.283c-1.062-4.917,6.493-29.458,10.484-36.042c2.004-3.306,3.972-5.458,4.805-9.002
		c1.991-8.473,3.441-17.084,3.992-25.723c0.437-6.859,0.962-16.772-5.223-22.019c-1.824-1.549-3.524,0.885-1.697,2.437
		c6.433,5.458,3.257,17.573,2.564,24.525c-0.74,7.457-2.186,14.891-4.008,22.204c-0.494,1.991-2.689,4.06-3.843,5.841
		c-1.925,2.978-3.469,6.125-4.906,9.299c-2.479,5.474-3.88,13.63-4.908,20.449c-2.291,15.21-18.629,49.433-18.629,49.433
		c-6.12-13.959-11.504-29-12.586-43.912c-0.212-2.954-0.419-5.437,1.189-7.96c2.039-3.205,3.515-6.681,4.674-10.194
		c3.762-11.41,1.256-23.14-6.211-32.941c-1.402-1.841-3.727-0.117-2.314,1.738c8.597,11.286,8.263,24.319,2.152,36.629
		c-0.828,1.668-1.795,3.33-2.94,4.851c-1.953,2.593-0.462,8.911-0.123,11.785c1.711,14.471,7.037,28.997,13.055,42.521
		c0.267,0.599-14.827,53.446-14.827,53.446l-20.402,43.738l-13.82-24.771c0,0-15.641-19.29-15.857-19.546
		c-0.684-0.811-5.536-15.506-89.628-84.585l-1.095-17.029c0-0.395-1.438-1.619-1.438-1.619l-14.788-7.582
		c-0.066-0.036-0.05-0.068-0.123-0.093c-4.886-1.706-7.022-13.837-7.451-18.369c-0.06-0.631-0.673-1.109-1.398-1.049
		c-0.724,0.052-1.252,0.606-1.193,1.238c0.17,1.802,0.644,17.606,7.81,20.271l13.108,7.838v16.857c0,0.296,1.349,0.582,1.584,0.796
		c0.723,0.656,60.062,56.063,82.15,77.177c-1.007,1.27-89.663-57.186-89.663-57.186l-20.81-17.811
		c-1.053-2.387-10.41-21.2-13.086-24.63c-0.411-0.524-1.193-0.659-1.796-0.302c-0.601,0.357-0.737,1.072-0.329,1.596
		c2.103,2.694,8.697,17.125,11.886,24.379c0.063,0.146,0.165,0.278,0.29,0.39l20.122,18.049c0.051,0.046,0.109,0.088,0.167,0.125
		l46.848,30.009c0.174,0.111,51.234,36.928,51.435,36.928c0.25,0,12.306,15.408,12.306,15.408c-0.807-0.57-1.604-1.154-2.425-1.706
		c-4.409-2.967-9.04-5.85-14.202-7.741c-2.108-0.774-4.242-1.457-6.521-1.724c-1.488-0.173-1.8,0.343-1.889,0.189
		c-7.554-13.019-21.579-26.781-39.015-28.717c-3.674-0.408-7.292,0.701-10.4-0.733c-3.407-1.574-6.813-3.147-10.221-4.718
		c-8.301-3.833-16.602-7.663-24.902-11.495c-0.933-0.432-1.867-0.862-2.799-1.293c-0.046-0.084-0.097-0.174-0.186-0.309
		c-1.887-2.857-3.773-5.713-5.659-8.57c-3.773-5.712-7.545-11.424-11.316-17.138c-1.271-1.924-3.588-0.19-2.315,1.738
		c5.658,8.569,10.223,17.139,15.88,25.708c1.346,2.039,4.35,2.813,6.649,3.875c6.817,3.146,13.637,6.294,20.454,9.442
		c4.677,2.16,9.353,4.318,14.031,6.477c2.131,0.984,5.376,0.121,7.753,0.188c5.06,0.143,9.951,1.75,14.354,3.82
		c10.63,4.999,19.368,14.538,24.567,23.962c0.291,0.523,1.058,0.866,1.706,0.852c9.367-0.199,18.355,6.446,25.134,11.37
		c3.018,2.192,5.94,4.517,8.751,6.933l5.198,7.285l2.823,23.321l-3.404,50.75l-36.167-23.059c0,0-27.115-6.931-27.676-7.484
		c-12.131-11.958-29.361-25.983-48.173-28.058c-2.447-14.495-5.307-28.011-9.918-42.102c-2.256-6.896-5.109-12.629-12.609-16.197
		c-4.33-2.062-9.137-3.349-13.583-5.205c-7.875-3.287-14.004-8.425-18.979-14.618c-1.45-1.804-3.781-0.085-2.315,1.739
		c7.165,8.918,14.915,14.456,26.351,18.547c4.774,1.708,9.743,3.334,12.932,7.074c2.548,2.987,3.607,7.164,4.759,10.681
		c4.603,14.064,7.323,28.735,9.744,43.195c0.132,0.79,1.107,1.205,1.904,1.264c17.106,1.271,30.899,12.846,42.496,23.789
		l-5.022-2.098c0,0-5.012,4.372,7.517,8.016l23.28,8.126c-10.538-1.464-21.025-3.271-31.351-5.515
		c-8.076-1.756-18.425-3.59-24.777-8.641c-5.776-4.595-12.01-11.331-20.322-9.815c-5.086-11.857-8.078-23.594-8.623-36.191
		c-0.176-4.085-2.737-4.606-6.481-6.883c-3.55-2.157-7.099-4.313-10.648-6.471c-2.095-1.273-2.97,1.715-0.898,2.974
		c3.21,1.951,5.324,3.901,8.535,5.852c1.731,1.054,3.466,2.106,5.199,3.159c1.714,1.042,0.539,5.066,0.771,7.529
		c1.08,11.375,4.247,23.018,9.018,33.656c0.373,0.832,1.331,1.527,2.429,1.203c9.834-2.903,15.284,8.635,22.571,12.322
		c7.934,4.014,17.522,5.875,26.349,7.698c13.186,2.723,26.634,2.54,40.088,4.075c3.164,2.591,10.221,8.342,17.202,13.842
		c-9.266-2.162-18.531-4.324-27.797-6.484c-11.366-2.651-22.012-5.361-33.678-6.37c-10.142-0.878-20.284-1.755-30.428-2.633
		c-3.923-0.34-11.424-2.379-15.212-0.915c-12.001,4.635-31.785,15.232-26.31,28.991c1.526,3.837,16.196,14.354,11.299,17.56
		c-2.582,1.689-7.069,2.567-10.132,2.302c-2.533-0.218-2.508,2.134,0,2.35c4.458,0.384,10.11,0.196,13.5-2.674
		c7.024-5.944-7.988-15.708-10.577-19.908c-5.514-8.948,7.803-17.392,15.076-21.378c2.664-1.459,5.452-2.758,8.293-3.932
		c0.142-0.058,0.252-0.101,0.354-0.139c0.887,0.077,1.774,0.155,2.662,0.231c16.851,1.458,33.703,2.916,50.553,4.375
		c2.143,0.186,8.84,2.031,12.403,2.861c9.98,2.328,19.961,4.656,29.941,6.984c5.536,1.292,11.071,2.583,16.608,3.874
		c4.685,3.58,8.662,6.457,10.426,7.337c0,0,66.82,47.372,63.478,72.149l-2.506,21.135l-23.463-22.592c0,0-10.101,1.457,0,12.389
		l24.3,24.777c0,0,26.724,30.609,21.713,51.744l-20.879-13.118c0,0-8.089,6.845,25.058,21.862c0,0,11.692,13.118,10.858,32.065
		l-38.177-18.855c-6.074-10.992-13.778-20.666-22.874-23.412c0,0-35.001-15.304-42.519-16.033c0,0-2.506-51.014-43.431-50.285
		c0,0-11.761,2.143,7.339,3.372c0,0,22.766,1.335,26.904,34.525l-0.835,10.201c0,0-39.384-1.101-39.972-1.038
		c-14.704,1.582-29.409,3.164-44.113,4.746c0.127-8.107-1.962-16.591-6.221-23.712c-3.474-5.812-9.081-10.145-16.021-12.57
		c-10.622-3.715-22.462-0.883-33.094,1.137c-4.258,0.811-8.498,1.71-12.777,2.433c-0.142,0.024-0.269,0.044-0.39,0.062
		c2.283-4.496,2.676-9.03,1.279-13.823c-4.161-14.289-21.502-22.855-37.793-20.96c-2.485,0.289-2.518,2.643,0,2.35
		c16.445-1.913,34.945,9.16,34.749,24.782c-0.041,3.321-2.529,5.862-2.859,8.987c-0.386,3.64,6.652,1.834,8.445,1.503
		c18.853-3.485,42.462-10.771,54.576,7.093c4.822,7.111,6.611,16.452,6.114,24.661c-0.052,0.854,0.941,1.833,1.974,1.722
		c13.225-1.421,18.787-0.656,32.011-2.078c-0.434,0.503-2.81,1.92-4.953,3.405c-0.514,0.356-0.942,0.782-1.344,1.232
		c-0.568,0.269-0.994,0.766-0.999,1.459c-0.002,0.271-0.002,0.503,0.076,0.779c0.113,0.397,0.402,0.716,0.773,0.938
		c2.828,4.052,5.365,8.309,7.393,12.703c2.238,4.848,4.446,14.59-5.724,9.968c-15.165-6.89-28.409,4.848-35.792,15.731
		c-1.086-2.082-2.703-3.972-4.57-5.509c-8.626-7.107-20.18-5.323-30.84-4.308c-0.48-3.757-0.754-6.151-1.044-9.956
		c-0.778-10.22-1.115-20.304-1.122-29.06c-0.001-2.189-2.854-2.189-2.853,0c0.007,8.755-0.708,18.834,0.027,29.06
		c0.282,3.917,0.646,7.101,1.159,10.967c-0.114,0.007-0.229-0.33-0.345-0.324c-0.532,0.034-1.069-0.131-1.603-0.106
		c-0.719-3.302-2.158-6.592-4.142-9.514c-6.799-10.02-20.644-15.995-31.334-22.377c-2.52-1.505-5.041-3.032-7.563-4.537
		c-2.106-1.257-4.078,0.623-1.991,1.869c1.688,1.009,3.377,3.106,5.065,4.115c11.132,6.645,24.844,12.612,32.416,22.582
		c1.769,2.333,3.01,5.037,3.652,7.854c-6.165,0.161-12.357-0.026-18.483-0.477c-1.349-0.102-2.89-0.22-4.536-0.38
		c-3.025-6.084-6.291-13.548-11.9-18.241c-3.48-2.912-10.889-3.005-15.281-4.378c-11.955-3.736-17.278-12.641-17.516-23.372
		c-0.05-2.219-2.903-2.223-2.854,0c0.192,8.586,1.935,17.177,10.197,22.471c6.054,3.878,13.051,5.318,20.194,6.898
		c6.291,1.39,9.62,10.51,12.056,15.069c0.18,0.337,0.354,0.677,0.532,1.015c-8.775-1.248-18.545-4.04-20.044-11.296
		c-0.451-2.184-3.161-1.256-2.712,0.916c1.685,8.161,10.759,11.353,18.892,13.043c1.89,0.393,3.805,0.703,5.73,0.976
		c3.36,6.73,6.303,13.687,8.416,20.763c1.123,3.764-0.007,7.257,2.26,10.642c3.845,5.737,9.5,10.761,14.58,15.654
		c3.073,2.96,6.202,5.875,9.358,8.775c-5.218-2.616-10.434-5.23-15.651-7.848c-6.064-3.04-12.13-6.082-18.195-9.125
		c-1.427-0.714-2.854-1.43-4.282-2.146c-0.009-0.005-0.013-0.005-0.021-0.009c-0.314-0.51-0.628-1.021-0.942-1.532
		c-5.869-9.552-11.738-19.104-17.606-28.655c-2.3-3.743-6.342-7.187-9.308-10.54c-3.624-4.098-7.247-8.196-10.869-12.294
		c-1.532-1.731-3.871-0.02-2.315,1.739c3.359,3.798,5.625,7.597,8.982,11.396c3.219,3.64,7.606,7.375,10.102,11.437
		c5.968,9.714,11.936,19.427,17.903,29.14c1.27,2.066,2.746,2.626,5.082,3.797c6.12,3.07,12.239,6.138,18.358,9.206
		c9.577,4.805,19.155,9.605,28.732,14.407c0.4,0.353,0.798,0.707,1.199,1.061c14.907,15.488,33.243,35.68,36.147,44.125
		l30.914,3.643c0,0,28.805,12.392,43.22,30.609c0,0,9.406,24.778,23.604,78.706c0,0,2.508,20.406,15.037,26.235l18.375,65.591
		l10.883,104.215c0,0,13.34,53.93,9.999,63.403c0,0,0,23.531-22.552,30.818l-17.179,6.441h46.059c0,0,34.239,5.472,47.126,0h8.146
		c0,0-19.842-10.086-12.323-43.607l18.375-112.337l12.528-74.023l3.342-65.797c0,0,2.506-28.527,8.352-35.087
		c0,0,6.682-33.574-4.176-67.098c0,0-10.022-24.65,0-58.901c0,0,1.091-23.642-2.471-32.397h0.005
		c1.299-18.606,23.009-20.404,27.206-19.255c10.044,2.754,13.523,10.74,10.746,19.395c-0.347,1.08,0.624,3.144,1.902,3.144
		c10.86,0,21.721,0,32.58,0c0.857,0,1.697-2.063,1.902-2.805c1.85-6.676,7.074-20.443,17.224-18.496
		c3.312,0.635,6.921,2.374,10.325,3.254c6.053,1.567,12.313,2.304,18.608,2.69c7.675,0.474,15.483-0.488,22.601-3.071
		c3.041-1.104,13.82-5.919,12.838-9.666c-0.678-2.586-1.205-5.434-1.465-8.339c16.271-2.653,35.79-7.57,44.67-20.543
		c3.036-4.439,3.944-9.971,5.459-14.881c1.481-4.802,2.962-9.607,4.445-14.411c0.661-2.142,1.321-4.287,1.984-6.429
		c0.661-2.148-2.053-3.059-2.715-0.916c-0.45,1.46-0.899,2.92-1.352,4.38c-2.918,9.463-5.811,20.024-10.317,28.967
		c-6.588,13.069-26.818,17.776-42.339,20.346c-0.079-7.974,2.16-16.041,9.195-20.89c1.995-1.378-0.817-2.705-2.793-1.345
		c-8.27,5.7-10.391,13.864-10.155,22.831c-0.37,0.058-0.744,0.114-1.108,0.17c-14.556,2.221-29.515,3.013-44.283,2.857
		c-3.165-0.033-7.754-2.072-11.888-3.402c-3.088-0.995-6.177-1.989-9.263-2.984c0.374-0.141,0.696-0.286,0.94-0.434
		c14.736-1.431,29.473-2.862,44.209-4.293c0.843-0.082,1.712-0.461,1.903-1.264c2.101-8.781,5.02-17.462,6.759-26.297
		c1.466-7.452,0.889-21.499,8.797-26.373c2.431-1.499,4.951-0.73,6.773-3.181c1.56-2.097,0.464-5.276-0.354-7.389
		c-1.907-4.935-5.421-9.594-8.956-13.758c-1.498-1.764-3.832-0.049-2.314,1.738c3.373,3.975,5.428,8.31,7.463,12.936
		c1.685,3.828,0.828,4.853-3.242,6.101c-2.948,0.904-4.855,3.337-6.227,5.637c-4.157,6.977-4.357,15.754-5.75,23.373
		c-1.547,8.468-4.396,16.796-6.479,25.19c-15.214,1.479-30.429,1.861-45.643,3.337c-12.601-2.027-49.359,2.721-49.359,2.721
		c-15.034,0-40.925,22.069-40.925,22.069c-4.175-44.231,30.901-84.042,30.901-84.042c15.87-16.761,32.845-24.051,32.845-24.051
		l46.718-3.557c5.745,1.78,11.951,2.646,17.915,2.806c17.843,0.477,32.537-8.282,42.784-20.35c5.526,1.94,11.743,2.992,17.571,1.815
		c11.058-2.235,10.109-14.585,8.753-22.019c-1.601-8.766-5.587-17.465-10.221-25.374c0.141-0.206,0.353-0.512,0.69-0.96
		c1.237-1.641,2.474-3.28,3.709-4.919c2.138-2.833,4.272-5.667,6.408-8.499c1.403-1.862-0.923-3.585-2.314-1.738
		c-3.797,5.038-8.688,10.074-12.486,15.113c-0.394,0.522-0.323,1.211,0,1.738c5.774,9.448,10.359,20.281,11.09,31.017
		c0.499,7.325-2.532,12.891-11.56,12.699c-3.771-0.082-7.87-1.104-11.311-2.453c-1.048-0.411-2.028-0.212-2.699,0.617
		c-9.965,12.31-24.045,20.306-41.65,19.836c-4.167-0.112-8.573-0.723-12.772-1.808l0.018-0.044
		c8.104-0.166,16.802-0.514,22.789-4.682c5.427-3.78,11.193-8.324,15.52-13.033c3.947-4.298,3.091-9.746,1.187-14.591
		c-2.455-6.249-6.545-11.937-6.567-18.738c-0.029-8.871,11.222-15.946,18.289-21.028c11.953-8.595,25.334-17.398,21.131-32.489
		c-0.602-2.157-3.313-1.242-2.711,0.917c4.332,15.554-15.003,24.288-26.437,32.994c-5.294,4.032-10.466,8.584-13.119,14.347
		c-2.403,5.215-0.636,11.154,1.519,16.156c2.165,5.036,5.604,9.959,5.627,15.477c0.023,6.039-9.728,11.675-14.405,15.447
		c-8.545,6.888-21.174,5.207-32.036,6.122c-0.539,0.046-0.995,0.279-1.344,0.593l-40.084,0.567l-23.657,12.387l14.198-51.011
		c-2.621-58.239,18.368-82.354,18.368-82.354l20.87-18.216l56.637-36.351c0.377-0.11,0.729-0.326,1.008-0.675
		c8.783-11.035,17.923-22.316,24.633-34.436c-0.021,0.039-1.075,0.052,0.505-0.286C619.651,187.733,620.772,187.463,621.89,187.188z
		 M189.365,293.804C190.017,293.568,189.784,293.773,189.365,293.804L189.365,293.804z M160.251,513.295
		c1.061-2.77,1.438-5.617,1.262-8.437c0.647-0.052,1.294-0.108,1.938-0.172c0.289,1.802,0.615,3.603,1.004,5.405
		c0.584,2.713,2.081,5.324,2.331,8.057c0.146,1.604-0.411,3.177-1.293,4.659c-0.515-0.692-1.028-1.387-1.542-2.078
		c-1.455-1.96-2.908-3.921-4.363-5.881C159.828,514.336,160.05,513.817,160.251,513.295z M146.243,534.602
		c-2.534-3.264-1.503-6.911-2.607-10.837c-1.853-6.598-4.689-13.028-7.729-19.306c7.018,0.697,14.158,0.779,21.142,0.639
		c0.189-0.003,0.378-0.014,0.568-0.021c0.148,3.007-0.407,6.022-1.781,8.746c-1.35,2.673,3.166,6.568,4.705,8.642
		c0.861,1.163,1.723,2.323,2.585,3.486c-0.655,0.74-1.324,1.438-1.94,2.082c-2.876,3.009-9.057,7.099-8.443,11.563
		C152.998,541.433,150.365,539.912,146.243,534.602z M190.901,577.181c-0.043-0.155-0.105-0.311-0.208-0.466
		c-6.043-9.183-33.903-36.438-34.071-37.673c-0.308-2.23,4.196-5.48,5.717-6.967c1.041-1.021,2.052-2.059,3.014-3.127
		c3.091,4.169,6.183,8.334,9.275,12.501c2.979,4.016,4.829,7.554,9.439,9.947c8.059,4.182,11.071,15.342,13.21,22.639
		c1.231,4.202,2.208,8.507,2.875,12.821L190.901,577.181z M414.176,765.494c-0.455,15.163-2.279,32.898-7.875,41.535
		c0,0-11.694,48.102-16.704,84.538c0,0-10.021,8.743-15.034-53.199c0,0,1.348-35.385,5.293-40.313
		c-1.593-3.387-3.408-3.063-3.637-7.986c-5.199,5.486-4.928,5.825-9.174,11.862c0,0-8.507,12.386-17.618-48.101
		c0,0-8.276-25.506-14.957-20.404c0,0-13.363-10.933-18.376-53.201c0,0-8.352-41.54-32.573-52.47l-36.315-19.68
		c0,0-3.047-31.319-27.126-41.522v4.138c0,0,24.07,11.88,15.715,34.471l-17.481,1.457c0,0-14.092-16.666-14.174-17.319
		c-1.582-12.657,0.443-23.087-11.378-36.922c-0.948-1.109-11.638-8.402-13.042-10.297c-3.995-5.385-7.956-10.77-11.949-16.153
		c0.281-0.386,0.59-0.765,0.851-1.163c3.247-4.939,1.472-8.873,0.07-13.922c-0.604-2.177-1.048-4.365-1.412-6.559
		c6.993-0.77,13.914-1.543,20.982,0.335c5.482,1.455,11.003,6.019,11.399,10.826c0.13,1.578,2.732,2.519,3.679,0.87
		c5.273-9.181,14.236-21.051,27.899-19.417c5.04,0.603,9.244,3.714,14.606,2.308c10.911-2.861-0.908-21.046-5.583-27.744
		c1.362-0.987,2.806-2.204,3.846-2.564c2.858-0.988,5.91-1.626,9.062-2.028c2.488,0.84,33.691,1.282,50.396,4.925
		c0,0,2.229,0.789,5.686,2.085c-0.208,0.083-0.417,0.143-0.624,0.236c-5.512,2.476-7.771,7.125-13.098,9.208
		c-7.107,2.777-13.808,6.373-19.651,10.869c-12.521,9.636-13.094,26.097-8.322,39.167c1.962,5.375,5.108,8.437,10.657,11.005
		c6.603,3.054,20.218,13.861,14.396,21.119c-1.463,1.824,0.867,3.543,2.314,1.738c7.297-9.097-5.649-20.634-13.493-25.191
		c-2.788-1.619-5.406-2.192-7.425-4.7c-2.062-2.562-3.044-5.744-3.877-8.742c-2.06-7.399-1.841-15.708,1.005-22.911
		c3.963-10.031,18.381-16.757,29.093-20.387c0.538-0.183,0.841-0.385,1.18-0.793c2.261-2.717,4.562-4.963,7.818-6.776
		c1.913-1.068,4.038-1.503,6.179-1.484c3.906,1.53,8.377,3.346,12.773,5.267c1.12,0.945,2.146,1.96,3.02,2.994
		c0.972,1.15-7.435,5.561-12.608,9.727c-7.939-4.831-39.208,18.518-41.264,20.004c-1.963,1.417,0.847,2.748,2.79,1.342
		c9.463-6.841,19.927-13.958,31.742-17.646c1.392-0.435,3.104-0.913,4.571-0.494c-0.015-0.03-0.028-0.061-0.046-0.122
		c0.013,0.045,0.042,0.081,0.058,0.124c0.005,0.002,0.012,0.002,0.017,0.004c0.042,0.011,0.036,0.066,0.007,0.047
		c0.484,1.124,2.235,1.43,3.215,0.584c6.903-5.94,16.269-11.837,26.057-7.351c0.167,0.076,0.329,0.169,0.494,0.25
		c1.688,1.252,2.84,2.413,3.196,3.419l-17.797-0.576c0,0-5.562,6.125,1.117,8.233c0,0,34.298-6.929,38.475,49.187l3.341,59.759
		c0,0,2.505,9.473,11.692,28.421l27.565,99.843c0,0,0.445,6.851,0.48,16.352L414.176,765.494z M424.676,690.427
		c0,0-17.542-65.59-28.397-73.605l-8.353-75.792c0,0-3.066-11.982-8.745-25.59c12.699,5.775,52.177,22.676,42.155,70.044
		c0,0,0,38.624,8.353,61.945C429.688,647.429,430.522,682.41,424.676,690.427z M481.47,499.77
		c3.437-1.333,31.784-3.117,35.766-3.505c5.027-0.199,8.503-0.281,8.503-0.281c0.278,0,12.423,3.739,18.246,5.614
		c3.799,1.225,7.681,3.106,11.785,3.157c15.233,0.188,30.577-0.8,45.597-3.033c0.169,1.919,0.417,3.806,0.726,5.61
		c0.13,0.761,0.362,2.205,0.036,2.524c-3.658,3.574-8.627,5.839-13.782,7.281c-8.361,2.34-17.678,1.824-26.196,0.501
		c-4.602-0.715-9.165-1.801-13.556-3.197c-4.528-1.442-7.867-2.714-12.938-0.776c-7.95,3.042-12.131,10.259-14.233,17.92
		c-9.512,0-19.023,1.094-28.535,1.094c5.288-28.457-21.275-22.902-27.068-22.956C473.745,503.2,481.47,499.77,481.47,499.77z
		 M535.597,250.249c0,0-2.001-36.815-1.548-37.342c7.841-9.14,15.683-22.657,23.525-31.796c3.242-3.78,6.486-7.56,9.729-11.34
		c-0.821,0.958-0.158,0.314,0.867-0.16c1.778-0.821,3.519-1.703,5.245-2.604c9.802-5.117,19.162-11.338,27.321-18.498
		c1.75,3.1,3.507,6.18,5.231,9.24c1.343,2.381,2.702,4.751,4.075,7.118c1.118,1.928,0.664,2.254,0.014,4.575
		c-2.28,8.114-7.645,15.802-12.4,22.966c-10.002,15.063-23.779,28.835-36.986,42.941L535.597,250.249z"/>
	<path fill="#FFD700"     d="M316.441,497.433
		c-0.003,0-0.007-0.001-0.012-0.002c0.016,0.033,0.025,0.048,0.036,0.054C316.458,497.468,316.449,497.451,316.441,497.433z"/>
</g>
</svg>
