<?xml version="1.0" encoding="utf-8"?>
<!-- Generator: Adobe Illustrator 18.0.0, SVG Export Plug-In . SVG Version: 6.00 Build 0)  -->
<!DOCTYPE svg PUBLIC "-//W3C//DTD SVG 1.1//EN" "http://www.w3.org/Graphics/SVG/1.1/DTD/svg11.dtd">
<svg version="1.1" id="Слой_1" xmlns="http://www.w3.org/2000/svg" xmlns:xlink="http://www.w3.org/1999/xlink" x="0px" y="0px"
	 viewBox="0 154.3 1024 484.8" enable-background="new 0 154.3 1024 484.8" xml:space="preserve">
<path fill="#FFD700"      d="
	M1021.8,554.6c3.5-2.6-1.9-6.1-1.9-6.1s3.4-8.1-4.4-22.8c0,0-3.7-74.3-15.2-83.4c0,0-4.1-2.4-12.4-6.3v-0.5l2.1-10.1
	c0.1,0,0.5,0,0.6,0c2.9,0,5.3-5.6,5.3-12.5c0-6.9-2.3-12.5-5.1-12.5c-2.9,0-5.2,5.6-5.2,12.5c0,4.1,0.8,7.7,2.1,10l-2.8,11.6
	c-21.6-10.3-66.2-28.6-137.5-41c0,0-8.8-1.7-16.8-2.2c0,0-6.4-11.5-14.6-28.6v-24.3c0-2,0-3.9-1-5.4v-9.6c0-1.1,0.1-1-1-1h-11
	c-0.5-2.1-0.9-4-1.3-5.8c0,0,22,2.8,25.1,2.3c0,0,3-7-22-38.6c0,0-15.6-0.1-29.8-12.2c0,0-86.4-91.6-267.8-100.3c0,0-13,0-16.4-3.9
	c0,0-22.5-11.7-66.1-9.5c0,0-13.4-0.3-16.4,13c0,0-13.8,126.1-8.2,143.3c0,0-4.8,37.5,0.6,174.1h-35.9v6.2H318v3.1h-12.4v-3.1H152.3
	v3.1H96.4v-1.3L76,506.8H65.3v-1.5l-29,17.4v4.8L8.9,543.1c-0.5-0.4-0.7-0.6-1.2-0.6c-2.1,0-3.7,2.8-3.7,6.2c0,2.6,1.1,4.9,2.6,5.8
	c-0.2,19-0.8,59.5-2.5,62.8c0,0,18.9-9,23.2-13l1.2-14.3c5.5,27.2,29.5,48.4,58.2,48.4c24.9,0,46.3-14.6,55.1-36.4h51.4
	c8.8,21.7,30.1,37.1,55.1,37.1s46.3-15.4,55.1-37.1h24.6c0,3.1-0.2,5.2-0.6,7.2h278h6.2l199-1.8c-1.3-11.2-0.2-28.9-0.2-28.9
	l10.2-0.2c0,32.8,26.6,60,59.4,60c32.6,0,59.1-26.1,59.4-58.2h9.3c0.9,2.1,0,18.6,0,18.6c18.6,3,71.7-6.2,71.7-6.2
	c5.2-3.5,0-14.1,0-14.1C1021.9,572,1021.8,554.6,1021.8,554.6z M31.2,557.1l1.1-13.1l13.2-8.6l0,0C39.3,541.5,34.3,548.9,31.2,557.1
	z M580,361.8c0,6.9-5.6,12.4-12.4,12.4h-66.3c-6.9,0-12.4-5.6-12.4-12.4v-24.9c0-6.9,5.6-12.4,12.4-12.4h66.3
	c6.9,0,12.4,5.6,12.4,12.4V361.8z M580,259.3c0,6.9-5.6,12.4-12.4,12.4h-66.3c-6.9,0-12.4-5.6-12.4-12.4v-24.9
	c0-6.9,5.6-12.4,12.4-12.4h66.3c6.9,0,12.4,5.6,12.4,12.4V259.3z M795.4,400.1c0,6.9-5.6,12.4-12.4,12.4l-64.2-8.3
	c-6.9,0-12.4-5.6-12.4-12.4V337c0-6.9,5.6-12.4,12.4-12.4h64.2c6.9,0,12.4,5.6,12.4,12.4V400.1z M810.9,331.3
	c-1-0.7-2.5-1.1-4.1-1.1c-0.8,0-1.3,0.6-2,0.8c-0.3-0.9-0.3-4.4-0.6-4.4h6.7V331.3z"/>
</svg>
